<svg id="visual" viewBox="0 0 960 300" width="960" height="300" xmlns="http://www.w3.org/2000/svg" xmlns:xlink="http://www.w3.org/1999/xlink" version="1.1"><rect x="0" y="0" width="960" height="300" fill="#202731"></rect><path d="M0 163L22.8 157.8C45.7 152.7 91.3 142.3 137 140.7C182.7 139 228.3 146 274 143.3C319.7 140.7 365.3 128.3 411.2 132.3C457 136.3 503 156.7 548.8 158.8C594.7 161 640.3 145 686 137.5C731.7 130 777.3 131 823 126.5C868.7 122 914.3 112 937.2 107L960 102L960 301L937.2 301C914.3 301 868.7 301 823 301C777.3 301 731.7 301 686 301C640.3 301 594.7 301 548.8 301C503 301 457 301 411.2 301C365.3 301 319.7 301 274 301C228.3 301 182.7 301 137 301C91.3 301 45.7 301 22.8 301L0 301Z" fill="#fa7268"></path><path d="M0 156L22.8 156.8C45.7 157.7 91.3 159.3 137 164.8C182.7 170.3 228.3 179.7 274 181.5C319.7 183.3 365.3 177.7 411.2 171.7C457 165.7 503 159.3 548.8 159C594.7 158.7 640.3 164.3 686 171.8C731.7 179.3 777.3 188.7 823 193.8C868.7 199 914.3 200 937.2 200.5L960 201L960 301L937.2 301C914.3 301 868.7 301 823 301C777.3 301 731.7 301 686 301C640.3 301 594.7 301 548.8 301C503 301 457 301 411.2 301C365.3 301 319.7 301 274 301C228.3 301 182.7 301 137 301C91.3 301 45.7 301 22.8 301L0 301Z" fill="#ef5f67"></path><path d="M0 173L22.8 178C45.7 183 91.3 193 137 198.7C182.7 204.3 228.3 205.7 274 205C319.7 204.3 365.3 201.7 411.2 196C457 190.3 503 181.7 548.8 180.7C594.7 179.7 640.3 186.3 686 190.7C731.7 195 777.3 197 823 197C868.7 197 914.3 195 937.2 194L960 193L960 301L937.2 301C914.3 301 868.7 301 823 301C777.3 301 731.7 301 686 301C640.3 301 594.7 301 548.8 301C503 301 457 301 411.2 301C365.3 301 319.7 301 274 301C228.3 301 182.7 301 137 301C91.3 301 45.7 301 22.8 301L0 301Z" fill="#e34c67"></path><path d="M0 236L22.8 230.7C45.7 225.3 91.3 214.7 137 213C182.7 211.3 228.3 218.7 274 225.2C319.7 231.7 365.3 237.3 411.2 235.2C457 233 503 223 548.8 223C594.7 223 640.3 233 686 232.5C731.7 232 777.3 221 823 220.5C868.7 220 914.3 230 937.2 235L960 240L960 301L937.2 301C914.3 301 868.7 301 823 301C777.3 301 731.7 301 686 301C640.3 301 594.7 301 548.8 301C503 301 457 301 411.2 301C365.3 301 319.7 301 274 301C228.3 301 182.7 301 137 301C91.3 301 45.7 301 22.8 301L0 301Z" fill="#d53867"></path><path d="M0 259L22.8 256.3C45.7 253.7 91.3 248.3 137 248.3C182.7 248.3 228.3 253.7 274 255.3C319.7 257 365.3 255 411.2 252.5C457 250 503 247 548.8 245.3C594.7 243.7 640.3 243.3 686 244.8C731.7 246.3 777.3 249.7 823 249.7C868.7 249.7 914.3 246.3 937.2 244.7L960 243L960 301L937.2 301C914.3 301 868.7 301 823 301C777.3 301 731.7 301 686 301C640.3 301 594.7 301 548.8 301C503 301 457 301 411.2 301C365.3 301 319.7 301 274 301C228.3 301 182.7 301 137 301C91.3 301 45.7 301 22.8 301L0 301Z" fill="#c62368"></path></svg>